<svg width="24" height="25" viewBox="0 0 24 25" fill="none" xmlns="http://www.w3.org/2000/svg">
<path d="M19 3.95557C19.5304 3.95557 20.0391 4.16628 20.4142 4.54135C20.7893 4.91643 21 5.42513 21 5.95557V19.9556C21 20.486 20.7893 20.9947 20.4142 21.3698C20.0391 21.7449 19.5304 21.9556 19 21.9556H5C4.46957 21.9556 3.96086 21.7449 3.58579 21.3698C3.21071 20.9947 3 20.486 3 19.9556V5.95557C3 5.42513 3.21071 4.91643 3.58579 4.54135C3.96086 4.16628 4.46957 3.95557 5 3.95557H19ZM18.5 19.4556V14.1556C18.5 13.291 18.1565 12.4618 17.5452 11.8504C16.9338 11.239 16.1046 10.8956 15.24 10.8956C14.39 10.8956 13.4 11.4156 12.92 12.1956V11.0856H10.13V19.4556H12.92V14.5256C12.92 13.7556 13.54 13.1256 14.31 13.1256C14.6813 13.1256 15.0374 13.2731 15.2999 13.5356C15.5625 13.7982 15.71 14.1543 15.71 14.5256V19.4556H18.5ZM6.88 9.51557C7.32556 9.51557 7.75288 9.33857 8.06794 9.02351C8.383 8.70845 8.56 8.28113 8.56 7.83557C8.56 6.90557 7.81 6.14557 6.88 6.14557C6.43178 6.14557 6.00193 6.32362 5.68499 6.64056C5.36805 6.95749 5.19 7.38735 5.19 7.83557C5.19 8.76557 5.95 9.51557 6.88 9.51557ZM8.27 19.4556V11.0856H5.5V19.4556H8.27Z" fill="#DDDDDD"/>
</svg>
