<svg width="198" height="33" viewBox="0 0 198 33" fill="none" xmlns="http://www.w3.org/2000/svg">
<path d="M176.901 5.9231H181.912L187.522 21.8399H187.579L193.046 5.9231H198V26.2533H194.612V10.5643H194.555L188.917 26.2533H185.984L180.346 10.5643H180.289V26.2533H176.901V5.9231Z" fill="white"/>
<path d="M158.476 5.9231H168.185C170.425 5.9231 172.105 6.40715 173.225 7.37525C174.345 8.34336 174.905 9.69111 174.905 11.4185C174.905 12.3866 174.763 13.1934 174.478 13.8388C174.193 14.4652 173.861 14.9777 173.481 15.3764C173.102 15.756 172.722 16.0312 172.342 16.2021C171.982 16.3729 171.716 16.4868 171.545 16.5438V16.6007C171.849 16.6387 172.171 16.7336 172.513 16.8855C172.874 17.0373 173.206 17.2841 173.51 17.6258C173.813 17.9485 174.06 18.3756 174.25 18.9071C174.459 19.4386 174.563 20.103 174.563 20.9002C174.563 22.0961 174.649 23.1876 174.82 24.1747C175.009 25.1428 175.294 25.8357 175.674 26.2533H171.858C171.593 25.8167 171.431 25.3326 171.374 24.8011C171.336 24.2696 171.317 23.7571 171.317 23.2636C171.317 22.3334 171.26 21.5362 171.146 20.8718C171.033 20.1884 170.824 19.6284 170.52 19.1918C170.216 18.7362 169.799 18.4041 169.267 18.1952C168.755 17.9864 168.09 17.882 167.274 17.882H162.035V26.2533H158.476V5.9231ZM162.035 15.177H167.872C169.011 15.177 169.875 14.9113 170.463 14.3798C171.052 13.8293 171.346 13.013 171.346 11.931C171.346 11.2856 171.251 10.7636 171.061 10.365C170.871 9.94737 170.605 9.62467 170.264 9.39688C169.941 9.16909 169.561 9.01723 169.125 8.9413C168.707 8.86537 168.271 8.82741 167.815 8.82741H162.035V15.177Z" fill="white"/>
<path d="M153.217 12.3865C153.065 11.7981 152.856 11.2571 152.591 10.7635C152.325 10.27 151.983 9.84289 151.566 9.48222C151.148 9.12156 150.654 8.84631 150.085 8.65649C149.534 8.44768 148.889 8.34328 148.149 8.34328C147.067 8.34328 146.127 8.56158 145.33 8.99817C144.552 9.43477 143.916 10.0232 143.422 10.7635C142.929 11.4849 142.558 12.3106 142.312 13.2407C142.084 14.1709 141.97 15.12 141.97 16.0881C141.97 17.0562 142.084 18.0053 142.312 18.9355C142.558 19.8656 142.929 20.7008 143.422 21.4412C143.916 22.1625 144.552 22.7415 145.33 23.1781C146.127 23.6147 147.067 23.833 148.149 23.833C148.946 23.833 149.648 23.7001 150.256 23.4343C150.863 23.1496 151.385 22.7699 151.822 22.2954C152.258 21.8018 152.6 21.2324 152.847 20.587C153.094 19.9415 153.255 19.2487 153.331 18.5084H156.805C156.729 19.7233 156.463 20.8337 156.007 21.8398C155.571 22.8459 154.973 23.7191 154.214 24.4594C153.454 25.1807 152.562 25.7407 151.537 26.1393C150.512 26.5379 149.383 26.7373 148.149 26.7373C146.63 26.7373 145.263 26.462 144.049 25.9115C142.853 25.3421 141.837 24.5733 141.002 23.6052C140.167 22.6371 139.521 21.5076 139.066 20.2168C138.629 18.926 138.411 17.5498 138.411 16.0881C138.411 14.6454 138.629 13.2787 139.066 11.9879C139.521 10.6971 140.167 9.56765 141.002 8.59954C141.837 7.63144 142.853 6.86265 144.049 6.29317C145.263 5.7237 146.63 5.43896 148.149 5.43896C149.288 5.43896 150.36 5.60032 151.366 5.92302C152.372 6.22674 153.255 6.68231 154.014 7.28975C154.793 7.87821 155.419 8.59954 155.894 9.45375C156.368 10.308 156.662 11.2856 156.776 12.3865H153.217Z" fill="white"/>
<path d="M124.234 11.5319H127.281V14.3793H127.338C127.432 13.9807 127.613 13.5915 127.879 13.2119C128.163 12.8322 128.495 12.4905 128.875 12.1868C129.274 11.8641 129.71 11.6079 130.185 11.418C130.659 11.2282 131.143 11.1333 131.637 11.1333C132.017 11.1333 132.273 11.1428 132.406 11.1618C132.558 11.1808 132.71 11.1997 132.861 11.2187V14.3508C132.634 14.3129 132.396 14.2844 132.15 14.2654C131.922 14.2274 131.694 14.2085 131.466 14.2085C130.916 14.2085 130.394 14.3224 129.9 14.5501C129.426 14.7589 129.008 15.0816 128.647 15.5182C128.287 15.9359 128.002 16.4579 127.793 17.0843C127.584 17.7107 127.48 18.4321 127.48 19.2483V26.2528H124.234V11.5319Z" fill="white"/>
<path d="M120.086 17.5968C120.049 17.0843 119.935 16.5908 119.745 16.1162C119.574 15.6416 119.327 15.2335 119.004 14.8918C118.701 14.5312 118.321 14.2464 117.866 14.0376C117.429 13.8098 116.935 13.6959 116.385 13.6959C115.815 13.6959 115.293 13.8003 114.819 14.0091C114.363 14.199 113.965 14.4742 113.623 14.8349C113.3 15.1766 113.034 15.5847 112.826 16.0592C112.636 16.5338 112.531 17.0463 112.512 17.5968H120.086ZM112.512 19.7323C112.512 20.3018 112.588 20.8523 112.74 21.3838C112.911 21.9153 113.158 22.3804 113.481 22.779C113.803 23.1777 114.211 23.5004 114.705 23.7471C115.198 23.9749 115.787 24.0888 116.47 24.0888C117.419 24.0888 118.179 23.8895 118.748 23.4909C119.337 23.0733 119.773 22.4563 120.058 21.6401H123.133C122.962 22.4373 122.668 23.1492 122.25 23.7756C121.833 24.402 121.33 24.9335 120.741 25.3701C120.153 25.7877 119.489 26.101 118.748 26.3098C118.027 26.5376 117.268 26.6514 116.47 26.6514C115.312 26.6514 114.287 26.4616 113.395 26.082C112.503 25.7023 111.744 25.1708 111.117 24.4874C110.51 23.8041 110.045 22.9878 109.722 22.0387C109.418 21.0896 109.266 20.0456 109.266 18.9066C109.266 17.8626 109.428 16.8755 109.751 15.9454C110.092 14.9962 110.567 14.1705 111.174 13.4681C111.801 12.7468 112.55 12.1773 113.424 11.7597C114.297 11.3421 115.284 11.1333 116.385 11.1333C117.543 11.1333 118.577 11.3801 119.489 11.8736C120.419 12.3482 121.187 12.9841 121.795 13.7814C122.402 14.5786 122.839 15.4993 123.105 16.5433C123.389 17.5683 123.465 18.6314 123.332 19.7323H112.512Z" fill="white"/>
<path d="M94.2219 11.5319H97.297V13.5251H97.354C97.8095 12.6709 98.4455 12.0634 99.2617 11.7028C100.078 11.3231 100.961 11.1333 101.91 11.1333C103.068 11.1333 104.074 11.3421 104.928 11.7597C105.801 12.1584 106.522 12.7183 107.092 13.4397C107.661 14.142 108.089 14.9678 108.373 15.9169C108.658 16.866 108.8 17.8816 108.8 18.9636C108.8 19.9506 108.668 20.9093 108.402 21.8394C108.155 22.7695 107.766 23.5953 107.234 24.3166C106.722 25.019 106.067 25.5884 105.27 26.025C104.472 26.4426 103.533 26.6514 102.451 26.6514C101.976 26.6514 101.502 26.604 101.027 26.5091C100.553 26.4331 100.097 26.3003 99.6603 26.1104C99.2237 25.9206 98.8156 25.6833 98.436 25.3986C98.0753 25.0949 97.7716 24.7437 97.5248 24.3451H97.4679V31.6913H94.2219V11.5319ZM105.554 18.9066C105.554 18.2422 105.469 17.5968 105.298 16.9704C105.127 16.344 104.871 15.7935 104.529 15.3189C104.188 14.8254 103.761 14.4362 103.248 14.1515C102.735 13.8478 102.147 13.6959 101.483 13.6959C100.116 13.6959 99.0814 14.1705 98.379 15.1196C97.6956 16.0687 97.354 17.3311 97.354 18.9066C97.354 19.6469 97.4394 20.3398 97.6102 20.9852C97.8001 21.6116 98.0753 22.1526 98.436 22.6082C98.7966 23.0638 99.2237 23.4244 99.7173 23.6902C100.23 23.9559 100.818 24.0888 101.483 24.0888C102.223 24.0888 102.849 23.937 103.362 23.6332C103.874 23.3295 104.292 22.9404 104.615 22.4658C104.956 21.9723 105.194 21.4218 105.327 20.8143C105.478 20.1879 105.554 19.552 105.554 18.9066Z" fill="white"/>
<path d="M78.382 11.5319H81.4571V13.5251H81.5141C81.9697 12.6709 82.6056 12.0634 83.4218 11.7028C84.2381 11.3231 85.1208 11.1333 86.0699 11.1333C87.2278 11.1333 88.2339 11.3421 89.0881 11.7597C89.9613 12.1584 90.6826 12.7183 91.2521 13.4397C91.8216 14.142 92.2487 14.9678 92.5334 15.9169C92.8181 16.866 92.9605 17.8816 92.9605 18.9636C92.9605 19.9506 92.8276 20.9093 92.5619 21.8394C92.3151 22.7695 91.926 23.5953 91.3945 24.3166C90.8819 25.019 90.227 25.5884 89.4298 26.025C88.6325 26.4426 87.6929 26.6514 86.6109 26.6514C86.1363 26.6514 85.6618 26.604 85.1872 26.5091C84.7126 26.4331 84.2571 26.3003 83.8205 26.1104C83.3839 25.9206 82.9757 25.6833 82.5961 25.3986C82.2354 25.0949 81.9317 24.7437 81.6849 24.3451H81.628V31.6913H78.382V11.5319ZM89.7145 18.9066C89.7145 18.2422 89.6291 17.5968 89.4582 16.9704C89.2874 16.344 89.0311 15.7935 88.6895 15.3189C88.3478 14.8254 87.9207 14.4362 87.4081 14.1515C86.8956 13.8478 86.3072 13.6959 85.6428 13.6959C84.276 13.6959 83.2415 14.1705 82.5391 15.1196C81.8558 16.0687 81.5141 17.3311 81.5141 18.9066C81.5141 19.6469 81.5995 20.3398 81.7704 20.9852C81.9602 21.6116 82.2354 22.1526 82.5961 22.6082C82.9568 23.0638 83.3839 23.4244 83.8774 23.6902C84.3899 23.9559 84.9784 24.0888 85.6428 24.0888C86.3831 24.0888 87.0095 23.937 87.522 23.6332C88.0346 23.3295 88.4522 22.9404 88.7749 22.4658C89.1166 21.9723 89.3538 21.4218 89.4867 20.8143C89.6386 20.1879 89.7145 19.552 89.7145 18.9066Z" fill="white"/>
<path d="M73.0794 5.9231H76.3254V8.99825H73.0794V5.9231ZM73.0794 11.5324H76.3254V26.2533H73.0794V11.5324Z" fill="white"/>
<path d="M58.2102 5.9231H61.4562V13.4686H61.5132C61.9118 12.8042 62.5003 12.2537 63.2785 11.8171C64.0758 11.3616 64.9585 11.1338 65.9266 11.1338C67.5401 11.1338 68.8119 11.5514 69.7421 12.3866C70.6722 13.2218 71.1373 14.4747 71.1373 16.1451V26.2533H67.8913V16.9994C67.8533 15.8414 67.6065 15.0062 67.151 14.4937C66.6954 13.9622 65.9835 13.6964 65.0154 13.6964C64.465 13.6964 63.9714 13.8008 63.5348 14.0096C63.0982 14.1994 62.7281 14.4747 62.4243 14.8354C62.1206 15.177 61.8833 15.5852 61.7125 16.0597C61.5417 16.5343 61.4562 17.0373 61.4562 17.5688V26.2533H58.2102V5.9231Z" fill="white"/>
<path d="M44.1036 19.4765C44.1036 20.2548 44.2365 20.9191 44.5022 21.4696C44.768 22.0201 45.1381 22.4757 45.6127 22.8364C46.0872 23.1781 46.6282 23.4343 47.2357 23.6052C47.8621 23.757 48.536 23.833 49.2573 23.833C50.0356 23.833 50.7 23.7475 51.2505 23.5767C51.801 23.3869 52.247 23.1496 52.5887 22.8648C52.9304 22.5801 53.1772 22.2574 53.329 21.8967C53.4809 21.5171 53.5568 21.1374 53.5568 20.7578C53.5568 19.9795 53.3765 19.41 53.0158 19.0494C52.6742 18.6697 52.2945 18.404 51.8769 18.2521C51.1556 17.9864 50.3108 17.7396 49.3427 17.5118C48.3936 17.265 47.2167 16.9518 45.812 16.5722C44.9388 16.3444 44.208 16.0501 43.6195 15.6895C43.0501 15.3098 42.5945 14.8922 42.2528 14.4366C41.9111 13.9811 41.6643 13.497 41.5125 12.9845C41.3796 12.472 41.3132 11.9499 41.3132 11.4184C41.3132 10.3934 41.522 9.5107 41.9396 8.77038C42.3762 8.01108 42.9457 7.38466 43.648 6.89112C44.3504 6.39758 45.1476 6.03691 46.0398 5.80912C46.932 5.56235 47.8336 5.43896 48.7448 5.43896C49.8078 5.43896 50.8044 5.58133 51.7345 5.86607C52.6836 6.13182 53.5094 6.53995 54.2117 7.09044C54.9331 7.64093 55.5025 8.32429 55.9202 9.14054C56.3378 9.9378 56.5466 10.8679 56.5466 11.931H52.9874C52.8925 10.6212 52.4464 9.70052 51.6491 9.16901C50.8518 8.61852 49.8363 8.34328 48.6024 8.34328C48.1848 8.34328 47.7577 8.39073 47.3211 8.48565C46.8845 8.56158 46.4859 8.70394 46.1252 8.91275C45.7645 9.10258 45.4608 9.36833 45.2141 9.71001C44.9863 10.0517 44.8724 10.4788 44.8724 10.9913C44.8724 11.7127 45.0907 12.2821 45.5273 12.6997C45.9828 13.0984 46.5713 13.4021 47.2926 13.6109C47.3686 13.6299 47.6628 13.7153 48.1753 13.8672C48.7068 14 49.2953 14.1519 49.9407 14.3227C50.5861 14.4936 51.2125 14.6644 51.8199 14.8353C52.4464 14.9871 52.8925 15.101 53.1582 15.177C53.8226 15.3858 54.4016 15.6705 54.8951 16.0312C55.3886 16.3918 55.7968 16.8094 56.1195 17.284C56.4612 17.7396 56.7079 18.2331 56.8598 18.7646C57.0306 19.2961 57.116 19.8277 57.116 20.3592C57.116 21.4981 56.8788 22.4757 56.4042 23.292C55.9486 24.0892 55.3412 24.7441 54.5819 25.2566C53.8226 25.7692 52.9589 26.1393 51.9908 26.3671C51.0227 26.6139 50.0356 26.7373 49.0295 26.7373C47.8716 26.7373 46.7801 26.5949 45.7551 26.3102C44.73 26.0254 43.8378 25.5888 43.0785 25.0004C42.3192 24.4119 41.7118 23.6621 41.2562 22.751C40.8006 21.8208 40.5634 20.7293 40.5444 19.4765H44.1036Z" fill="white"/>
<path d="M27.6149 20.5973C30.3161 20.5973 32.2745 23.1979 30.7851 25.4513C27.7995 29.9686 22.6249 32.9556 16.7415 32.9556C7.49544 32.9556 0 25.5783 0 16.4778C0 7.37737 7.49544 0 16.7415 0C22.6249 0 27.7995 2.98702 30.7851 7.50432C32.2745 9.75777 30.3161 12.3584 27.6149 12.3584C26.0652 12.3584 24.7006 11.4323 23.6485 10.2945C21.9407 8.44754 19.4787 7.28826 16.7415 7.28826C11.5851 7.28826 7.40491 11.4026 7.40491 16.4778C7.40491 21.5531 11.5851 25.6674 16.7415 25.6674C19.4787 25.6674 21.9407 24.5081 23.6485 22.6612C24.7006 21.5234 26.0652 20.5973 27.6149 20.5973Z" fill="#1D24D7"/>
<circle cx="16.4776" cy="16.478" r="5.2729" fill="#1D24D7"/>
</svg>
