<svg width="84" height="85" viewBox="0 0 84 85" fill="none" xmlns="http://www.w3.org/2000/svg">
<path d="M9.82086 41.0881C8.99094 34.153 9.36432 27.189 10.8818 20.3329C11.1023 19.3371 12.0149 20.243 18.4489 18.802C18.9412 18.692 19.4292 18.5769 19.9126 18.458C20.1293 18.0569 20.3696 17.6575 20.6367 17.2644C15.0343 18.5945 10.6378 19.0465 10.4811 19.183C10.2031 19.4249 10.1165 19.5274 9.92208 20.3606C8.04972 28.3868 8.001 36.8906 9.50502 45.0415C9.57936 43.745 9.68478 42.4132 9.82044 41.0876L9.82086 41.0881Z" fill="black"/>
<path d="M72.5928 24.4961C71.4924 23.4427 69.6372 22.3133 68.8493 22.0332C67.7523 21.6426 58.0091 20.7085 44.2155 12.4912C39.0612 9.42101 39.7034 8.87837 37.7866 10.2497C37.1154 10.7297 36.4127 11.1846 35.6857 11.6151C36.0024 11.6634 36.3165 11.7197 36.6286 11.7844C39.1511 10.222 38.766 9.89855 39.3599 10.3438C45.3692 14.8504 56.1069 20.1844 66.5171 22.3033C67.6401 22.5317 68.271 22.2121 68.0942 23.2646C67.8321 24.8241 67.2155 34.2598 62.6951 45.2411C56.7827 59.6039 44.5784 72.8041 33.0284 78.9256C32.1518 79.3901 31.2681 80.0276 30.0716 79.0931C27.3399 76.9595 25.4092 75.2825 22.8862 72.2753C18.501 67.0484 17.0528 64.5057 15.1254 59.955C14.8193 59.8382 14.4942 59.7131 14.1254 59.5749C14.0826 59.5589 14.0402 59.543 13.9982 59.527C16.9634 66.1403 21.0365 72.0615 26.0249 76.6966C26.9573 77.5631 33.4711 83.2158 34.7697 82.8378C38.6694 81.703 49.6381 74.3879 57.2603 64.9589C71.0287 47.9262 73.3677 25.2391 72.5924 24.4969L72.5928 24.4961ZM72.0401 25.0673C70.2177 47.082 58.388 68.3583 38.4892 80.2301C34.1645 82.8101 34.4534 82.4195 33.5693 81.7626C33.345 81.5959 32.1039 80.6597 32.0729 80.6282C31.6957 80.2486 31.5668 80.7286 34.5731 79.0604C44.7854 73.3941 53.4996 63.6783 59.1822 54.293C63.9282 46.4545 66.0593 39.8882 67.5969 32.2568C69.6935 21.853 68.2584 22.4734 69.7402 23.2966C70.4815 23.7082 71.1534 24.2252 71.8578 24.6926C72.0464 24.8178 72.0451 24.822 72.0401 25.0673Z" fill="black"/>
<path d="M26.5432 26.092C40.6459 26.4537 40.4707 28.2055 40.643 26.5507C41.2045 21.1499 38.2368 18.1158 33.4421 17.8386C31.0254 19.0306 28.5696 19.9323 26.2685 20.6199C25.659 21.4557 25.2009 22.4674 24.8649 23.6413C24.62 24.4973 24.5486 25.1223 24.5502 25.8871C24.5507 26.1622 24.5322 26.0404 26.5432 26.092Z" fill="black"/>
<path d="M17.3078 26.3944C17.9411 26.3827 17.737 26.0694 17.7664 25.9182C17.8807 25.3306 18.0071 24.0088 18.4149 22.3918C16.3145 22.7329 14.9549 22.8652 14.8075 22.9752C14.6437 23.097 14.5009 23.2474 14.4568 23.4658C14.1796 24.8299 13.9537 26.1689 13.7747 27.4818C14.8138 26.8388 16.2569 26.4142 17.3078 26.3944Z" fill="black"/>
<path d="M62.2847 25.5209C61.7509 25.3357 55.4408 24.51 47.2269 20.4263C47.1173 20.3722 47.0098 20.318 46.9031 20.2646C47.0501 20.7313 47.1698 21.2155 47.2601 21.717C48.1354 26.576 46.607 28.1816 47.3273 28.3786C50.8931 29.3551 52.6214 29.9981 53.2741 34.0146C54.0414 38.7375 52.2287 50.8826 50.5604 57.5619C55.9688 49.9082 61.3108 37.0189 62.7325 26.2744C62.7396 25.7364 62.685 25.6595 62.2852 25.5209H62.2847Z" fill="black"/>
<path d="M40.5443 63.6666C35.5757 63.6666 31.7029 64.0769 20.4641 61.5242C25.4906 69.825 31.4437 74.0868 32.3249 73.818C34.498 73.1552 37.5194 70.7436 38.7673 69.7952C42.0349 67.3122 44.113 65.3735 46.0627 63.1802C44.294 63.5566 42.2087 63.5742 40.5443 63.6666Z" fill="black"/>
<path d="M53.2741 34.0146C52.6214 29.9981 50.8931 29.3551 47.3273 28.3786C46.607 28.1812 48.1354 26.576 47.2601 21.717C45.6007 12.5043 34.057 9.18795 25.825 12.9079C18.5384 16.2007 18.0995 24.2 17.766 25.9187C17.7366 26.0699 17.9408 26.3828 17.3074 26.3945C15.7269 26.4243 13.2586 27.3693 12.6139 28.5957C9.68272 34.1725 8.58946 51.4925 9.9616 55.6702C10.3484 56.8479 10.1624 58.0923 14.1251 59.5749C16.1482 60.3318 16.8614 60.7022 20.2869 61.4843C31.6626 64.0815 35.5497 63.667 40.5443 63.667C43.7564 63.4889 48.5373 63.5885 49.5823 60.8521C51.3841 56.1334 54.1972 39.6984 53.2736 34.015L53.2741 34.0146ZM18.6913 26.1576C18.7165 25.0018 19.6342 20.9291 20.9496 18.6506C22.3104 16.2931 23.6712 15.1431 25.5167 14.0999C27.8204 12.7979 32.0977 12.2905 32.608 12.2804C35.5522 12.222 38.4326 13.1032 40.7081 14.3099C43.9916 16.0508 45.3495 18.1121 46.0152 20.748C46.6162 23.1282 46.5973 25.9703 46.2731 27.744C46.1504 28.4139 46.2491 28.0888 41.6934 27.4336C41.5322 27.4105 41.4931 27.3693 41.5175 27.1875C43.1705 14.8529 28.135 14.3976 24.6503 21.5813C23.6641 23.6141 23.7124 26.0106 23.7107 26.022C23.6691 26.2568 21.7724 26.0862 21.7724 26.1505C18.5611 26.1505 18.6875 26.3429 18.6913 26.1576ZM40.643 26.5508C40.4708 28.2056 40.646 26.4537 26.5432 26.0921C24.5322 26.0405 24.5503 26.1627 24.5499 25.8872C24.5486 25.1223 24.6196 24.497 24.8645 23.6414C25.9569 19.8228 28.3458 17.7152 33.0049 17.8211C38.0554 17.9357 41.2209 20.9879 40.6426 26.5503L40.643 26.5508ZM49.534 57.5526C48.7179 61.1252 48.7628 61.4574 45.4679 62.2096C43.6691 62.6204 35.501 62.8178 33.671 62.5851C32.3337 62.415 32.2657 63.0954 22.8233 61.1319C8.83936 58.2246 11.3573 57.0759 10.3703 52.3992C9.80116 39.761 12.4316 30.3345 13.2162 29.2564C13.8546 28.3794 14.3909 28.2648 14.9176 27.8872C15.0831 27.7688 15.015 27.8448 15.8563 27.5655C16.4636 27.3639 17.4099 27.3328 17.42 27.3328C26.0854 26.6209 33.3795 27.3504 41.9942 28.5231C46.2529 29.1027 51.2875 29.5134 52.0678 32.7878C53.3614 38.2158 50.7116 52.3997 49.5344 57.5522L49.534 57.5526Z" fill="black"/>
<path d="M25.2185 36.8512C23.9005 39.2805 24.3369 42.5149 26.749 44.6204C26.851 44.7094 26.8909 44.8089 26.872 44.9379C26.6847 46.2285 26.3899 49.2681 26.397 50.875C26.4092 53.5596 26.5222 55.0439 28.7927 56.0028C30.4 56.6819 32.0767 56.0528 32.7504 53.9641C33.0322 53.0897 33.0502 52.4458 33.3846 49.4147C33.8033 45.6208 33.4757 45.7388 33.8554 45.5742C35.6685 44.7879 37.4258 42.5317 37.3813 39.8634C37.6392 33.8486 28.3992 30.9884 25.2181 36.8508L25.2185 36.8512ZM28.8964 47.4444C28.0846 55.1099 29.2333 55.9045 27.9351 54.8667C27.0531 54.1615 27.0148 52.4802 27.0283 51.2517C27.0829 46.2739 27.9989 44.8249 27.4474 44.3415C25.4264 42.5716 24.397 39.6757 26.1702 36.8084C26.5831 36.141 27.5323 35.4291 27.5961 35.3686C28.3084 34.6953 29.3899 34.6227 28.9746 35.0817C26.2471 38.099 27.2954 41.4338 29.256 42.9513C29.6348 43.2444 29.3509 43.1478 28.8956 47.444L28.8964 47.4444Z" fill="black"/>
<path d="M47.4617 34.417C47.3281 39.8443 45.368 61.4386 44.4729 58.9177C44.2461 58.2793 46.8514 34.9865 46.8346 34.0415C46.7989 32.039 46.3058 31.8059 46.6019 31.6446C46.817 31.5274 47.0656 31.8806 47.1433 32.0856C47.4255 32.8307 47.4818 33.6203 47.4621 34.4174L47.4617 34.417Z" fill="black"/>
<path d="M7.93633 72.9447C7.69525 72.8628 9.92671 70.5645 9.88597 70.1378C9.85195 69.7808 9.42733 69.5746 9.13963 69.8304C8.74819 70.179 8.01613 70.9497 7.44661 71.5305C7.20637 71.7758 7.33237 69.7556 6.50161 68.2033C6.30379 67.8337 5.81911 67.9219 5.80525 68.3709C5.77711 69.2856 6.23785 71.7115 6.39409 72.4432C5.60449 72.2433 3.33524 71.6183 3.31634 72.4432C3.31214 72.6276 3.41756 72.7363 3.55952 72.8065C5.26051 73.6444 5.71747 73.4533 5.53939 73.6902C4.59103 74.9523 4.28989 75.2836 4.12694 75.7692C4.0106 76.1148 4.10216 76.5 4.48393 76.5029C4.90183 76.5063 5.04043 76.1602 5.96905 75.0384C7.19839 73.5532 6.54823 73.9434 7.36303 76.1976C7.56589 76.7587 7.61671 76.8994 7.88047 76.8599C8.33575 76.7919 8.03335 75.2878 7.93843 74.4672C7.89265 74.0719 10.1846 75.3781 10.5113 74.5428C10.7839 73.8464 9.56257 73.4965 7.93633 72.9438V72.9447Z" fill="black"/>
<path d="M64.5338 7.82992C64.2071 7.73038 65.336 7.22974 66.1546 6.09238C66.3907 5.76436 66.0946 5.4166 65.2894 5.91766C63.6304 6.95002 63.6098 7.33348 63.5603 7.07896C63.3797 6.1558 63.2822 5.44894 62.992 4.92939C62.6858 4.38087 61.8794 4.21833 62.1247 5.95798C62.428 8.10628 62.782 7.27342 60.9958 7.36456C60.1814 7.40614 59.8895 7.8967 60.1369 8.21926C60.2826 8.40952 60.5262 8.4469 61.0268 8.55358C62.0029 8.76148 61.8139 8.39608 60.2494 9.93202C60.0848 10.0937 59.8752 10.4545 60.0961 10.7019C60.4817 11.1332 61.144 10.4726 62.5863 9.33688C62.7808 9.18358 62.6195 9.33268 63.0953 10.6834C63.2549 11.1357 63.3541 11.4419 63.6833 11.444C63.9605 11.4461 64.2474 11.1479 64.1739 10.5994C63.7799 7.66612 63.5447 9.6523 66.1298 8.8081C67.0207 8.51704 65.3713 8.08528 64.5338 7.82992Z" fill="black"/>
<path d="M63.7522 78.2259C63.4108 79.5207 65.436 79.5724 65.3222 78.4451C65.3986 77.645 64.0399 77.1339 63.7522 78.2259Z" fill="black"/>
<path d="M17.8042 3.05797C17.2267 3.02269 15.5089 3.67243 16.1225 4.95512C16.5967 5.94632 17.9743 6.19916 18.7761 5.30288C19.6778 4.29487 18.7597 2.98993 17.8042 3.05797ZM17.5997 5.04079C16.7084 5.10379 16.5614 4.07059 16.8731 3.96433C17.1629 3.86563 17.4413 3.71569 17.7622 3.73669C18.677 3.79675 18.409 5.11093 17.5997 5.04079Z" fill="black"/>
<path d="M80.5665 50.5873C79.8827 49.0517 77.5929 49.6494 76.9112 50.4134C75.5458 51.9426 77.6085 54.9179 79.719 53.1157C80.433 52.5058 80.9168 51.3739 80.5665 50.5873ZM78.2939 52.8103C77.9999 52.8506 77.2846 52.1606 77.4661 51.3491C77.5849 50.8162 78.1066 50.402 78.354 50.4466C78.5136 50.4755 78.6811 50.4516 78.8445 50.4629C80.4019 50.5709 79.5753 52.7511 78.2939 52.8103Z" fill="black"/>
</svg>
