<svg width="24" height="25" viewBox="0 0 24 25" fill="none" xmlns="http://www.w3.org/2000/svg">
<path d="M10 15.9556L15.19 12.9556L10 9.95557V15.9556ZM21.56 8.12557C21.69 8.59557 21.78 9.22557 21.84 10.0256C21.91 10.8256 21.94 11.5156 21.94 12.1156L22 12.9556C22 15.1456 21.84 16.7556 21.56 17.7856C21.31 18.6856 20.73 19.2656 19.83 19.5156C19.36 19.6456 18.5 19.7356 17.18 19.7956C15.88 19.8656 14.69 19.8956 13.59 19.8956L12 19.9556C7.81 19.9556 5.2 19.7956 4.17 19.5156C3.27 19.2656 2.69 18.6856 2.44 17.7856C2.31 17.3156 2.22 16.6856 2.16 15.8856C2.09 15.0856 2.06 14.3956 2.06 13.7956L2 12.9556C2 10.7656 2.16 9.15557 2.44 8.12557C2.69 7.22557 3.27 6.64557 4.17 6.39557C4.64 6.26557 5.5 6.17557 6.82 6.11557C8.12 6.04557 9.31 6.01557 10.41 6.01557L12 5.95557C16.19 5.95557 18.8 6.11557 19.83 6.39557C20.73 6.64557 21.31 7.22557 21.56 8.12557Z" fill="#DDDDDD"/>
</svg>
